<svg xmlns="http://www.w3.org/2000/svg" viewBox="0 0 292 63" preserveAspectRatio="xMinYMin meet">
  <path fill="#454243" d="M116.2 1.8c1.4 0 2.5 1.2 2.5 2.6V35c0 8 3.9 10.7 9.2 10.7 5.5 0 9.3-2.8 9.3-10.7V4.4c0-1.4 1.2-2.6 2.6-2.6h13c1.4 0 2.6 1.2 2.6 2.6V35c0 19.3-11.1 27.8-25.7 27.8-8.4 0-15.5-3.3-20-9.4h-.2c-4.4 6-11.3 9.4-20 9.4C75.2 62.8 64 54.3 64 35V4.4c0-1.4 1.2-2.6 2.6-2.6h13c1.4 0 2.6 1.2 2.6 2.6V35c0 8 3.9 10.8 9.3 10.8 5.3 0 9.2-2.8 9.2-10.8V4.4c0-1.4 1.1-2.6 2.5-2.6h13zM178.6 36.5v.3c1.5 6.5 6.5 9.9 13.3 9.9 5 0 8.7-1 11-4 .2-.2.6-.4 1-.4h16.5c.8 0 1.4.8 1 1.5C217.3 55.3 206.2 63 192 63c-18.9 0-32.2-13.3-32.2-31.4S173 0 191.9 0a30.4 30.4 0 0131.8 31.5v4c0 .5-.5 1-1.1 1h-44zm.3-11.7v.2h26.2v-.2c-2.1-5.7-7-8.6-13.2-8.6s-11 3-13 8.6zM41.3 29.9c0-9.4-4.8-13.4-11.7-13.4s-11.7 4-11.7 13.3v28.7c0 1.5-1.3 2.7-3 2.7H3C1.3 61.2 0 60 0 58.5v-54C0 3 1.5 1.8 3 1.8h11.2c1.6 0 3 1.2 3 2.7L17 9h.3C20 4.3 24.4 0 34.7 0 55.5 0 59.2 12.5 59 28.4v30.1c.2 1.5-1.1 2.7-2.8 2.7h-12c-1.6 0-3-1.2-3-2.7V30zM256.6 63c8.8 0 15.6-4.4 18.5-11h.2v7c0 1.3 1.1 2.4 2.4 2.4h11.9c1.3 0 2.4-1.1 2.4-2.5V32.1C292 12.5 279 0 260 0S228 13.3 228 31.5c0 22.1 16 31.5 28.7 31.5zm3.5-46c8.2 0 13.8 5.9 13.8 14.5S268.3 46 260 46s-13.8-6-13.8-14.5c0-8.6 5.5-14.6 13.8-14.6z"/>
</svg>
